<?xml version="1.0" encoding="utf-8"?>
<svg viewBox="-4.91 -6.962 612.72 277.295" xmlns="http://www.w3.org/2000/svg">
  <defs>
    <clipPath clipPathUnits="userSpaceOnUse" id="clipPath18">
      <path d="M 0,576 H 612 V 0 H 0 Z" id="path16"/>
    </clipPath>
  </defs>
  <g id="g10" transform="matrix(1.333333, 0, 0, -1.333333, -106.384758, 516.963623)">
    <g id="g12">
      <g id="g14" clip-path="url(#clipPath18)">
        <g id="g20" transform="translate(150.9312,259.0264)">
          <path d="m 0,0 h -9.192 c -3.848,10.969 -7.688,21.675 -11.517,32.094 0,0.182 0,0.365 0,0.549 3.173,11.238 6.339,22.711 9.5,34.396 2.796,0.397 5.594,0.783 8.392,1.159 C -6.006,56.463 -9.2,44.929 -12.4,33.617 -8.276,22.706 -4.142,11.489 0,0 m -21.161,0 h -9.192 v 64.167 c 3.045,0.481 6.092,0.952 9.139,1.411 0.018,-21.86 0.036,-43.719 0.053,-65.578" style="fill:#54575a;fill-opacity:1;fill-rule:nonzero;stroke:none" id="path22"/>
        </g>
        <g id="g24" transform="translate(156.1963,259.0264)">
          <path d="m 0,0 c -0.054,23.079 -0.107,46.158 -0.161,69.236 7.573,0.967 15.154,1.861 22.74,2.681 0.008,-2.905 0.017,-5.81 0.025,-8.714 -4.527,-0.431 -9.052,-0.884 -13.575,-1.36 0.018,-7.122 0.037,-14.244 0.056,-21.366 4.017,0.277 8.034,0.542 12.052,0.794 0.009,-2.897 0.017,-5.795 0.025,-8.693 C 17.143,32.378 13.125,32.17 9.107,31.952 9.128,24.144 9.148,16.335 9.169,8.527 13.7,8.593 18.231,8.655 22.763,8.715 22.771,5.81 22.78,2.905 22.788,0 Z" style="fill:#54575a;fill-opacity:1;fill-rule:nonzero;stroke:none" id="path26"/>
        </g>
        <g id="g28" transform="translate(207.4209,259.0264)">
          <path d="m 0,0 h -21.831 c -0.072,24.204 -0.144,48.408 -0.216,72.612 3.061,0.314 6.124,0.616 9.187,0.906 0.065,-21.537 0.129,-43.073 0.194,-64.609 4.213,0.048 8.426,0.094 12.639,0.137 C -0.018,6.03 -0.009,3.016 0,0" style="fill:#54575a;fill-opacity:1;fill-rule:nonzero;stroke:none" id="path30"/>
        </g>
        <g id="g32" transform="translate(234.5171,259.0264)">
          <path d="m 0,0 h -21.831 l -0.217,75.076 c 3.067,0.244 6.133,0.476 9.201,0.695 0.061,-22.196 0.121,-44.393 0.182,-66.589 4.214,0.037 8.428,0.07 12.642,0.101 C -0.016,6.189 -0.008,3.095 0,0" style="fill:#54575a;fill-opacity:1;fill-rule:nonzero;stroke:none" id="path34"/>
        </g>
        <g id="g36" transform="translate(239.7822,259.0264)">
          <path d="m 0,0 c -0.06,25.641 -0.12,51.28 -0.18,76.92 7.61,0.43 15.224,0.786 22.839,1.069 0.006,-3.15 0.011,-6.3 0.016,-9.45 -4.542,-0.148 -9.084,-0.32 -13.625,-0.514 0.016,-7.834 0.033,-15.668 0.049,-23.502 4.026,0.113 8.054,0.214 12.081,0.303 0.006,-3.147 0.011,-6.294 0.016,-9.442 C 17.17,35.314 13.144,35.234 9.119,35.145 9.136,26.557 9.154,17.968 9.172,9.38 c 4.534,0.026 9.067,0.05 13.6,0.07 0.006,-3.149 0.011,-6.3 0.016,-9.45 z" style="fill:#54575a;fill-opacity:1;fill-rule:nonzero;stroke:none" id="path38"/>
        </g>
        <g id="g40" transform="translate(278.3232,299.6841)">
          <path d="M 0,0 C 2.014,0.025 4.028,0.047 6.042,0.067 8.79,0.093 10.163,2 10.161,5.801 10.157,11.462 10.152,17.123 10.148,22.784 10.146,26.581 8.769,28.465 6.017,28.42 4.001,28.386 1.985,28.349 -0.031,28.306 -0.021,18.871 -0.01,9.436 0,0 m -9.258,37.56 c 6.016,0.19 12.033,0.334 18.051,0.433 7.043,0.114 10.568,-4.374 10.57,-13.368 0.003,-6.474 0.005,-12.947 0.007,-19.42 0.003,-6.877 -1.819,-11.235 -5.46,-13.079 2.147,-10.917 4.292,-21.847 6.434,-32.784 H 11.629 C 9.612,-30.063 7.592,-19.48 5.57,-8.915 3.717,-8.929 1.863,-8.945 0.01,-8.963 0.021,-19.528 0.033,-30.092 0.044,-40.658 h -9.191 c -0.037,26.073 -0.074,52.145 -0.111,78.218" style="fill:#54575a;fill-opacity:1;fill-rule:nonzero;stroke:none" id="path42"/>
        </g>
        <g id="g44" transform="translate(351.0391,259.0264)">
          <path d="m 0,0 h -9.191 c -3.814,12.758 -7.632,25.57 -11.455,38.412 v 0.657 c 3.209,13.137 6.421,26.234 9.638,39.274 2.817,-0.079 5.633,-0.168 8.448,-0.267 C -5.812,65.25 -9.06,52.353 -12.304,39.407 -8.196,26.215 -4.096,13.069 0,0 m -21.161,0 h -9.192 c 0.015,26.243 0.03,52.485 0.043,78.728 3.074,-0.036 6.147,-0.084 9.22,-0.145 C -21.113,52.389 -21.137,26.194 -21.161,0" style="fill:#54575a;fill-opacity:1;fill-rule:nonzero;stroke:none" id="path46"/>
        </g>
        <g id="g48" transform="translate(375.4531,298.7178)">
          <path d="m 0,0 c 0.029,12.375 0.059,24.75 0.088,37.124 3.07,-0.178 6.14,-0.368 9.208,-0.57 C 9.23,11.139 9.164,-14.276 9.098,-39.691 h -9.194 c 0.013,5.1 0.025,10.2 0.037,15.299 -3.26,11.7 -6.524,23.483 -9.791,35.332 -0.036,-16.877 -0.072,-33.753 -0.107,-50.631 h -9.191 c 0.046,25.922 0.094,51.846 0.142,77.769 3.071,-0.129 6.143,-0.269 9.213,-0.422 C -6.525,25.032 -3.262,12.474 0,0" style="fill:#54575a;fill-opacity:1;fill-rule:nonzero;stroke:none" id="path50"/>
        </g>
        <g id="g52" transform="translate(412.5205,295.1387)">
          <path d="m 0,0 c 0.024,8.22 0.049,16.439 0.074,24.659 0.008,2.886 -1.328,4.439 -4.009,4.644 -0.83,0.062 -1.661,0.124 -2.491,0.186 -2.681,0.198 -4.026,-1.171 -4.035,-4.095 C -10.485,17.075 -10.51,8.755 -10.534,0.436 -7.022,0.298 -3.511,0.153 0,0 m -10.64,-36.112 h -9.191 c 0.058,20.906 0.115,41.811 0.173,62.716 0.023,8.649 3.71,12.722 11.055,12.112 2.3,-0.188 4.599,-0.383 6.898,-0.586 C 5.636,37.468 9.292,32.912 9.268,24.567 9.206,4.341 9.146,-15.886 9.085,-36.112 h -9.193 c 0.027,9.046 0.054,18.091 0.082,27.135 -3.511,0.115 -7.023,0.224 -10.535,0.329 -0.026,-9.155 -0.052,-18.31 -0.079,-27.464" style="fill:#54575a;fill-opacity:1;fill-rule:nonzero;stroke:none" id="path54"/>
        </g>
        <g id="g56" transform="translate(439.0322,293.5391)">
          <path d="M 0,0 C 1.945,-0.105 3.891,-0.213 5.836,-0.323 8.258,-0.458 9.474,0.841 9.48,3.582 9.498,10.11 9.515,16.639 9.532,23.167 9.539,25.906 8.172,27.425 5.434,27.708 3.649,27.891 1.865,28.07 0.08,28.246 0.054,18.831 0.026,9.416 0,0 M -9.075,37.892 C -3.495,37.31 2.081,36.689 7.654,36.028 15.042,35.131 18.723,30.69 18.705,22.812 18.689,15.972 18.673,9.132 18.657,2.292 18.64,-5.529 14.964,-9.271 7.63,-8.973 c -2.551,0.11 -5.103,0.216 -7.654,0.32 -0.025,-8.619 -0.049,-17.24 -0.074,-25.86 H -9.29 c 0.072,24.135 0.144,48.27 0.215,72.405" style="fill:#54575a;fill-opacity:1;fill-rule:nonzero;stroke:none" id="path58"/>
        </g>
        <g id="g60" transform="translate(474.1211,291.3867)">
          <path d="M 0,0 C 1.942,-0.133 3.885,-0.269 5.827,-0.407 8.246,-0.576 9.458,0.613 9.459,3.168 9.464,9.257 9.47,15.346 9.475,21.435 9.476,23.989 8.11,25.45 5.379,25.806 3.6,26.036 1.819,26.261 0.039,26.484 0.026,17.656 0.013,8.828 0,0 M -9.104,35.863 C -3.539,35.116 2.022,34.329 7.579,33.502 14.943,32.38 18.621,28.115 18.622,20.814 V 1.779 C 18.623,-5.47 14.961,-8.889 7.635,-8.516 5.086,-8.378 2.537,-8.244 -0.012,-8.113 -0.024,-16.195 -0.036,-24.277 -0.048,-32.36 h -9.191 c 0.045,22.741 0.09,45.482 0.135,68.223" style="fill:#54575a;fill-opacity:1;fill-rule:nonzero;stroke:none" id="path62"/>
        </g>
        <g id="g64" transform="translate(257.8174,232.3701)">
          <path d="M 0,0 C 0.973,0 1.721,0.231 2.241,0.695 2.762,1.158 3.022,1.776 3.022,2.549 V 2.6 C 3.022,3.458 2.75,4.102 2.203,4.53 1.656,4.96 0.897,5.173 -0.076,5.173 H -3.995 V 0 Z M -7.939,8.733 H 0.256 C 2.527,8.733 4.269,8.127 5.481,6.915 6.505,5.891 7.017,4.524 7.017,2.817 V 2.766 C 7.017,1.314 6.663,0.133 5.955,-0.781 5.246,-1.694 4.319,-2.364 3.176,-2.791 l 4.38,-6.403 h -4.61 l -3.842,5.737 h -0.051 -3.048 v -5.737 h -3.944 z" style="fill:#54575a;fill-opacity:1;fill-rule:nonzero;stroke:none" id="path66"/>
        </g>
        <g id="g68" transform="translate(270.4424,241.1035)">
          <path d="M 0,0 H 13.498 V -3.509 H 3.893 v -3.637 h 8.451 v -3.508 H 3.893 v -3.765 h 9.732 v -3.509 H 0 Z" style="fill:#54575a;fill-opacity:1;fill-rule:nonzero;stroke:none" id="path70"/>
        </g>
        <g id="g72" transform="translate(299.9473,230.6553)">
          <path d="M 0,0 -2.382,5.812 -4.764,0 Z m -4.149,10.576 h 3.637 L 7.171,-7.479 H 3.047 l -1.639,4.021 h -7.58 l -1.639,-4.021 h -4.021 z" style="fill:#54575a;fill-opacity:1;fill-rule:nonzero;stroke:none" id="path74"/>
        </g>
        <g id="g76" transform="translate(311.9326,241.1035)">
          <path d="m 0,0 h 3.944 v -14.342 h 8.938 v -3.586 H 0 Z" style="fill:#54575a;fill-opacity:1;fill-rule:nonzero;stroke:none" id="path78"/>
        </g>
        <g id="g80" transform="translate(331.4473,237.4668)">
          <path d="M 0,0 H -5.455 V 3.637 H 9.399 V 0 H 3.944 V -14.291 H 0 Z" style="fill:#54575a;fill-opacity:1;fill-rule:nonzero;stroke:none" id="path82"/>
        </g>
        <g id="g84" transform="translate(350.9629,230.2441)">
          <path d="m 0,0 -6.89,10.859 h 4.611 l 4.277,-7.197 4.354,7.197 h 4.482 L 3.944,0.077 V -7.068 H 0 Z" style="fill:#54575a;fill-opacity:1;fill-rule:nonzero;stroke:none" id="path86"/>
        </g>
        <g id="g88" transform="translate(233.3003,230.8262)">
          <path d="M 0,0 -43.116,1.629 0,3.261 C 0.903,3.295 1.653,2.591 1.69,1.69 1.727,0.794 1.025,0.03 0.123,0 Z" style="fill:#fed857;fill-opacity:1;fill-rule:nonzero;stroke:none" id="path90"/>
        </g>
        <g id="g92" transform="translate(374.6543,234.0869)">
          <path d="M 0,0 43.118,-1.632 0,-3.261 c -0.901,-0.037 -1.659,0.667 -1.688,1.568 -0.044,0.9 0.665,1.657 1.562,1.693 z" style="fill:#fed857;fill-opacity:1;fill-rule:nonzero;stroke:none" id="path94"/>
        </g>
        <g id="g96" transform="translate(186.7246,372.7725)">
          <path d="M 0,0 V -13.218 L -96.978,-32.975 119.446,-9.969 335.021,-28.583 119.446,8.756 30.56,-7.596 v 7.424 z" style="fill:#fed857;fill-opacity:1;fill-rule:nonzero;stroke:none" id="path98"/>
        </g>
        <g id="g100" transform="translate(521.7461,320.9551)">
          <path d="m 0,0 v -43.832 -2.976 -37.191 C 0,-97.98 -9.409,-98.576 -9.409,-98.576 l -206.589,-27.823 -206.593,27.823 c 0,0 -9.409,0.596 -9.409,14.577 v 37.191 2.976 39.255 l 4.677,-79.18 c 0,0 0,-8.46 6.543,-9.618 l 204.78,-26.563 204.367,26.564 c 0,0 6.928,0 6.928,10.002 z" style="fill:#54575a;fill-opacity:1;fill-rule:nonzero;stroke:none" id="path102"/>
        </g>
      </g>
    </g>
  </g>
</svg>